<?xml version="1.0" encoding="utf-8"?>
<svg viewBox="0 0 30 30" fill="#0075ff" xmlns="http://www.w3.org/2000/svg">
  <path d="M 16.882 7.825 C 16.67 7.825 16.457 7.907 16.294 8.069 L 15.288 9.075 L 17.371 11.157 L 18.376 10.152 C 18.702 9.826 18.702 9.299 18.376 8.974 L 17.472 8.069 C 17.309 7.907 17.096 7.825 16.882 7.825 Z M 14.455 9.908 L 9.564 14.799 C 9.564 14.799 9.947 14.764 10.089 14.907 C 10.232 15.049 10.114 15.982 10.289 16.157 C 10.464 16.332 11.39 16.208 11.524 16.341 C 11.657 16.474 11.647 16.882 11.647 16.882 L 16.538 11.99 L 14.455 9.908 Z M 9.04 16.157 L 8.647 17.269 C 8.631 17.313 8.623 17.36 8.623 17.406 C 8.623 17.636 8.809 17.823 9.04 17.823 C 9.086 17.823 9.132 17.815 9.177 17.799 C 9.178 17.798 9.179 17.798 9.18 17.797 L 9.191 17.794 C 9.191 17.794 9.192 17.793 9.193 17.792 L 10.289 17.406 L 9.664 16.782 L 9.04 16.157 Z" style=""/>
</svg>